<svg xmlns="http://www.w3.org/2000/svg" viewBox="0 0 64 64" role="img" aria-label="Comment pin favicon">
  <defs>
    <linearGradient id="bg" x1="6" y1="4" x2="58" y2="60" gradientUnits="userSpaceOnUse">
      <stop stop-color="#111827"/>
      <stop offset="1" stop-color="#312e81"/>
    </linearGradient>
  </defs>
  <rect width="64" height="64" rx="14" fill="url(#bg)"/>
  <path d="M14 16h34a6 6 0 0 1 6 6v18a6 6 0 0 1-6 6H31L19 56v-10h-5a6 6 0 0 1-6-6V22a6 6 0 0 1 6-6z" fill="#7dd3fc"/>
  <path d="M18 27h26M18 35h18" stroke="#0f172a" stroke-width="5" stroke-linecap="round"/>
  <path d="M43 11c7 0 12 5 12 12 0 9-12 22-12 22S31 32 31 23c0-7 5-12 12-12z" fill="#f43f5e" stroke="#fecdd3" stroke-width="3"/>
  <circle cx="43" cy="23" r="4" fill="#fff1f2"/>
</svg>
